<svg width="512" height="512" viewBox="0 0 512 512" fill="none" xmlns="http://www.w3.org/2000/svg">
<rect width="512" height="512" fill="black"/>
<path d="M209 190C209 159.624 233.624 135 264 135V135C294.376 135 319 159.624 319 190V376H209V190Z" fill="white"/>
<path d="M269.654 230.826H339.533C379.583 230.826 412.049 263.293 412.049 303.342V303.342C412.049 343.392 379.583 375.858 339.533 375.858H269.654V230.826Z" fill="white"/>
<rect x="99" y="135" width="110" height="241" rx="55" fill="#F19FE3"/>
<path d="M159.41 230.826H229.289C269.339 230.826 301.805 263.293 301.805 303.342V303.342C301.805 343.392 269.339 375.858 229.289 375.858H159.41V230.826Z" fill="#F19FE3"/>
</svg>
